<?xml version="1.0" standalone="no"?>
<!DOCTYPE svg PUBLIC "-//W3C//DTD SVG 20010904//EN"
 "http://www.w3.org/TR/2001/REC-SVG-20010904/DTD/svg10.dtd">
<svg version="1.0" xmlns="http://www.w3.org/2000/svg"
 width="16.000000pt" height="16.000000pt" viewBox="0 0 16.000000 16.000000"
 preserveAspectRatio="xMidYMid meet">
<metadata>
Created by potrace 1.11, written by Peter Selinger 2001-2013
</metadata>
<g transform="translate(0.000000,16.000000) scale(0.001600,-0.001600)"
fill="#000000" stroke="none">
<path d="M2577 9993 c-2 -1 -153 -5 -337 -8 -184 -4 -352 -7 -372 -7 l-38 -1
0 -46 c-2 -173 2 -1215 5 -1481 11 -900 18 -1386 30 -2014 2 -139 0 -185 -11
-201 -15 -22 -8 -38 19 -48 10 -4 16 -11 12 -16 -3 -5 -1 -12 5 -16 20 -13 61
-109 56 -135 -3 -19 3 -35 19 -52 l22 -24 -20 -52 c-11 -28 -23 -49 -28 -46
-5 3 -9 -2 -9 -11 0 -8 6 -18 14 -21 11 -4 39 -59 36 -72 0 -1 7 -17 17 -35 9
-17 16 -35 15 -39 -1 -3 5 -12 13 -18 8 -7 15 -23 15 -37 0 -15 17 -41 45 -71
25 -25 45 -53 45 -62 0 -28 20 -40 46 -28 26 12 54 -3 54 -28 0 -16 36 -37 49
-29 15 9 64 -14 80 -38 9 -12 17 -35 19 -51 1 -16 10 -41 20 -54 57 -82 60
-87 50 -112 -5 -14 -21 -37 -36 -52 -14 -16 -22 -28 -18 -28 5 0 1 -11 -8 -25
-9 -13 -16 -35 -16 -48 0 -22 -30 -86 -92 -198 -14 -24 -23 -55 -21 -67 1 -13
-3 -35 -11 -50 -7 -15 -19 -58 -26 -97 -8 -44 -23 -86 -41 -113 -16 -24 -29
-49 -29 -57 0 -8 -13 -29 -30 -48 -22 -26 -30 -46 -33 -86 -2 -28 -1 -54 4
-56 18 -12 -2 -79 -41 -141 -23 -37 -43 -73 -44 -81 -2 -15 -60 -55 -86 -59
-14 -3 -50 -43 -47 -54 1 -5 -28 -90 -46 -130 -6 -14 -12 -32 -12 -40 -1 -9
-7 -25 -14 -37 -6 -12 -11 -31 -11 -42 0 -11 -9 -22 -20 -26 -11 -3 -20 -11
-20 -18 0 -6 -9 -20 -20 -32 -16 -17 -18 -27 -11 -52 7 -22 5 -39 -5 -58 -20
-38 -18 -51 14 -80 27 -25 27 -26 10 -56 -17 -29 -17 -31 4 -60 26 -35 61 -38
75 -7 9 21 10 20 37 -15 26 -34 56 -49 56 -28 0 5 11 9 25 9 27 0 50 -21 41
-37 -11 -17 6 -41 30 -41 12 0 29 -9 37 -21 13 -18 12 -26 -6 -69 -11 -27 -23
-48 -25 -45 -3 2 -12 0 -22 -5 -22 -12 -19 -44 7 -72 25 -27 22 -65 -8 -97
-11 -12 -15 -21 -10 -21 25 0 -3 -127 -30 -135 -11 -4 -16 -12 -12 -21 3 -7 1
-14 -4 -14 -8 0 -8 -53 1 -775 15 -1167 18 -1407 20 -1617 l1 -228 420 5 c823
10 1627 32 1820 50 33 3 155 8 270 10 204 4 311 8 560 19 66 3 185 8 265 11
80 4 163 8 185 10 22 2 81 6 130 9 50 3 123 8 163 11 86 7 176 13 287 20 44 3
107 7 140 11 33 3 87 7 120 9 63 3 245 15 305 20 19 2 78 6 130 9 52 4 113 8
135 11 22 2 85 7 140 10 228 12 281 15 300 19 11 2 61 7 110 10 50 4 108 9
130 12 106 11 137 14 230 19 55 3 127 8 160 11 33 3 85 8 115 10 30 2 82 7
115 10 33 2 73 5 88 4 l29 0 -7 92 c-3 51 -8 116 -11 143 -2 28 -6 79 -9 115
-3 36 -7 92 -10 125 -23 234 -29 315 -40 461 -2 38 -7 98 -11 134 -3 36 -7 85
-9 110 -2 25 -6 77 -9 115 -3 39 -8 97 -10 130 -3 34 -7 85 -10 115 -6 59 -16
171 -21 235 -14 181 -25 305 -30 355 -7 62 -16 163 -21 225 -2 33 -6 76 -8 95
-3 19 -8 71 -11 115 -4 44 -8 96 -10 115 -1 19 -6 73 -10 118 -3 46 -8 93 -11
105 -2 12 -6 55 -9 97 -6 94 -14 181 -21 244 -2 26 -7 78 -10 115 -11 163 -14
171 -60 171 -22 0 -44 19 -48 42 -3 19 -65 78 -81 78 -22 0 -40 40 -24 51 11
8 9 14 -10 29 -13 11 -29 20 -36 20 -7 0 -11 8 -9 18 5 21 -62 96 -80 89 -7
-3 -18 4 -25 14 -15 25 -31 16 -31 -17 0 -19 -4 -24 -17 -21 -18 3 -73 -18
-73 -29 0 -3 5 -14 11 -25 13 -25 3 -59 -18 -59 -10 0 -13 -6 -9 -16 4 -9 2
-22 -3 -28 -10 -11 21 -94 33 -88 3 1 14 2 24 1 9 0 4 -5 -12 -10 -17 -4 -35
-5 -40 0 -18 14 -76 22 -76 10 0 -6 -20 -9 -48 -8 -36 2 -57 -4 -89 -24 -24
-15 -49 -27 -57 -27 -8 0 -17 -6 -20 -12 -5 -13 -36 15 -55 50 -6 10 -14 13
-27 7 -11 -5 -26 -9 -35 -9 -9 -1 -26 -9 -38 -20 -14 -12 -28 -16 -45 -12 -14
3 -27 2 -31 -4 -3 -5 -12 -7 -19 -4 -8 3 -20 -1 -27 -9 -12 -12 -19 -12 -51
-1 -23 8 -40 9 -43 3 -10 -15 -22 -11 -50 15 -22 21 -31 23 -53 15 -15 -5 -31
-16 -37 -23 -5 -7 -18 -15 -27 -19 -13 -4 -18 -17 -18 -44 0 -66 -9 -83 -41
-83 -16 0 -29 4 -29 9 0 16 -40 23 -56 10 -13 -10 -17 -10 -24 1 -6 10 -31 15
-82 16 -40 1 -86 5 -101 9 -20 5 -38 2 -63 -11 -19 -10 -34 -21 -34 -24 0 -4
-8 -15 -18 -26 -29 -31 -33 -54 -15 -84 16 -28 16 -30 -1 -49 -19 -20 -19 -20
-37 3 -11 13 -19 29 -19 36 0 6 -4 8 -10 5 -11 -7 -65 19 -93 44 -29 25 -49
79 -37 101 8 15 6 21 -10 30 -11 6 -20 18 -20 28 0 9 -11 27 -25 40 -23 23
-24 25 -8 49 13 20 14 29 5 44 -7 10 -12 25 -12 32 0 8 -9 22 -20 32 -11 10
-17 21 -15 25 3 4 -4 19 -15 32 -10 14 -20 31 -22 39 -3 14 -33 34 -97 64 -33
16 -35 16 -76 -14 -41 -29 -59 -32 -49 -7 6 15 -26 45 -54 51 -31 6 -57 33
-82 88 -19 40 -21 50 -10 57 8 5 17 7 21 4 15 -9 16 30 6 134 -1 12 -5 23 -9
23 -5 1 -11 2 -16 3 -21 3 -52 44 -46 61 6 15 4 17 -16 12 -27 -7 -51 8 -44
27 3 8 -2 16 -10 19 -9 4 -16 16 -16 27 0 12 -13 32 -29 46 -17 14 -33 34 -36
44 -4 11 -13 20 -21 20 -8 0 -14 10 -14 23 0 12 -14 37 -30 56 -24 27 -29 40
-26 72 3 32 -1 43 -20 58 -17 13 -20 21 -11 30 8 8 8 11 0 11 -17 0 -26 39
-13 55 7 9 8 24 2 47 -7 29 -12 33 -39 31 l-31 -2 15 44 c11 33 12 49 3 64
-10 21 -19 24 -70 25 -19 1 -24 6 -22 22 1 11 -7 29 -18 39 -11 10 -20 24 -20
32 0 10 -6 12 -20 8 -11 -4 -20 -2 -20 4 0 6 -6 11 -12 11 -26 0 -41 -19 -40
-47 0 -20 -9 -38 -29 -57 -16 -15 -29 -36 -29 -45 0 -10 -12 -23 -26 -29 -14
-7 -22 -17 -19 -22 3 -6 -6 -15 -22 -21 -15 -5 -31 -16 -35 -22 -5 -9 -10 -9
-20 1 -22 22 -36 12 -42 -33 -6 -36 -13 -48 -43 -66 l-35 -22 -25 32 c-13 17
-32 31 -41 31 -9 0 -27 18 -40 40 -19 34 -27 39 -46 34 -13 -3 -27 -1 -31 6
-5 8 -11 8 -21 -1 -22 -18 -28 -4 -11 29 13 28 13 32 -6 51 -16 16 -18 21 -7
21 54 2 80 97 34 127 -13 8 -24 21 -24 28 0 7 -7 18 -15 25 -14 11 -14 15 -1
29 9 9 22 33 30 53 15 35 51 53 96 49 8 -1 20 10 26 23 10 21 8 30 -13 61 -18
27 -22 40 -14 48 26 26 -2 66 -46 67 -26 0 -29 10 -11 28 10 10 8 14 -10 18
-25 7 -28 17 -8 33 35 29 25 101 -13 101 -19 0 -33 30 -22 48 3 6 20 12 36 14
28 3 30 6 30 43 1 22 -6 53 -15 68 -14 27 -14 29 5 43 21 15 24 31 28 121 1
29 8 58 15 65 6 6 12 20 12 30 0 10 4 18 10 18 5 0 1 15 -10 33 -26 43 -25 54
7 64 24 8 28 15 29 49 1 21 5 67 9 100 7 58 6 63 -16 78 -21 13 -30 13 -63 2
-22 -8 -45 -21 -52 -31 -11 -14 -18 -15 -47 -6 -26 9 -41 9 -61 0 -23 -11 -29
-10 -47 10 -15 16 -19 29 -14 51 5 21 1 34 -14 49 -28 28 -44 26 -82 -9 -40
-36 -63 -26 -46 20 12 32 -3 60 -32 60 -9 0 -29 11 -44 26 -15 14 -32 22 -37
19 -14 -8 -49 36 -43 52 3 8 -2 13 -13 13 -12 0 -15 3 -8 8 7 4 13 21 15 37 2
24 -6 38 -40 72 -23 23 -52 43 -64 45 -15 2 -25 15 -36 50 -9 30 -22 50 -34
54 -10 3 -25 20 -32 37 -8 18 -33 49 -57 69 -24 21 -52 47 -64 58 -12 11 -26
20 -33 20 -6 0 -11 13 -11 29 0 16 -5 31 -11 33 -5 2 -11 12 -13 23 -3 20 -56
38 -83 28 -7 -3 -15 1 -18 8 -3 8 -21 15 -41 16 -41 2 -59 15 -81 56 -21 41
-58 76 -83 80 -12 2 -25 8 -28 14 -12 17 -73 45 -88 39 -8 -3 -14 -2 -14 3 0
15 26 31 61 37 36 7 59 21 59 35 0 5 -7 9 -15 9 -9 0 -28 12 -42 26 -21 21
-23 28 -12 35 10 6 11 9 2 10 -7 1 -17 2 -22 3 -6 0 -15 6 -22 13 -9 9 -5 18
19 40 38 32 40 51 10 88 -16 20 -21 39 -19 67 2 36 0 40 -28 51 -17 6 -29 17
-27 23 6 15 -14 34 -35 34 -17 0 -29 27 -29 68 0 24 -30 60 -46 55 -5 -1 -19
12 -31 30 -13 18 -32 42 -42 54 -10 11 -26 34 -35 51 -9 17 -22 35 -30 39 -12
6 -15 59 -20 273 -4 146 -8 321 -11 390 -2 69 -7 238 -11 375 -6 244 -11 414
-13 426 -1 4 -170 7 -174 2z"/>
</g>
</svg>
